<svg xmlns="http://www.w3.org/2000/svg" xml:space="preserve" width="1500" height="1500" data-id="lg_djzGirUzOGUF1KC03Y" data-version="1" viewBox="0 0 1500 1500"><path fill="#8eb4e5" stroke="transparent" d="M0 0h1500v1500H0z"/><g data-padding="20"><g transform="translate(-724.104 -729.857)scale(1.91267)"><rect width="401.502" height="132.21" x="147.384" y="389.973" fill="none" rx="0" ry="0" transform="translate(416.37 374.52)"/><path fill="#d6350e" d="M590.875 868.448q-7.31 0-11.65-3.57t-6.23-10.48q-1.88-6.91-1.88-16.8v-41.87q0-6.63.85-12.14.86-5.51 3.06-9.54t6.14-6.23 10.11-2.2q5.89 0 9.6 2.09 3.72 2.08 5.77 5.94 2.06 3.85 2.83 9.14.77 5.28.77 11.68v11.14h-11.6v-11.19q0-9.37-1.34-14.03t-6.03-4.66q-4.97 0-6.65 4.77-1.69 4.77-1.69 13.86v43.53q0 7.31.63 11.85.63 4.55 2.37 6.6 1.74 2.06 5 2.06 4.74 0 6.23-4.8 1.48-4.8 1.48-15.77v-11.14h11.72v11.03q0 10.05-1.75 16.91-1.74 6.85-5.97 10.34-4.22 3.48-11.77 3.48m45.6-1.21h-11.71v-101.63h11.71v25.02q1.15-3.99 4.83-7.08 3.69-3.08 8.83-3.08 6.45 0 10.11 4.57 3.65 4.57 3.65 13.88v68.32h-11.71v-67.35q0-5.26-1.91-7.28-1.91-2.03-5.11-2.03-2.35 0-4.35 1.11-1.99 1.12-3.17 3.49-1.17 2.37-1.17 6.14Zm55.64.01h-11.77v-85.69h11.77Zm0-93.57h-11.77v-10.74h11.77Zm39.88 94.08h-8.05q-5.49 0-8.29-1.32-2.8-1.31-3.77-4.22-.97-2.92-.97-7.72v-63.58h-7.82v-8.68h7.82v-15.54h11.71v15.54h9.26v8.68h-9.26v62.56q0 2.17.57 3.22.58 1.06 2.58 1.4 1.99.35 6.22.35Zm33.53-44.1h-25.83v-8.29h25.83Zm35.13 44.62q-6.23 0-10.02-2.11-3.8-2.11-5.77-6.09-1.98-3.97-2.66-9.48-.69-5.51-.69-12.25v-28.68q0-8.57 1.43-15.14t5.6-10.28q4.17-3.72 12.4-3.72 5.71 0 9.22 1.89 3.52 1.88 5.37 5.43 1.86 3.54 2.52 8.45.65 4.91.65 10.91v5.94h-11.54v-7.54q0-4.91-.31-8.25t-1.63-5.06q-1.31-1.71-4.4-1.71-3.25 0-4.85 1.85-1.6 1.86-2.15 5.32-.54 3.45-.54 8.2v36.44q0 5.32.46 8.83t2 5.26q1.54 1.74 4.74 1.74 3.08 0 4.48-1.86t1.8-5.37.4-8.37v-8.28h11.54v5.54q0 6.34-.62 11.54-.63 5.2-2.49 8.97t-5.46 5.83q-3.59 2.05-9.48 2.05m43.94-1.04h-11.71v-101.63h11.71v25.02q1.15-3.99 4.83-7.08 3.69-3.08 8.83-3.08 6.45 0 10.11 4.57t3.66 13.88v68.32h-11.72v-67.35q0-5.26-1.91-7.28-1.91-2.03-5.11-2.03-2.35 0-4.34 1.11-2 1.12-3.18 3.49-1.17 2.37-1.17 6.14Zm56.49.75q-7.77 0-11.19-6.03-3.43-6.03-3.49-16.71v-8.34q0-5.66 1.94-9.4 1.95-3.74 5.49-6.25 3.54-2.52 8.34-4.55 4.8-2.02 10.51-4.31v-6.63q0-5.48-.34-8.88t-1.74-5-4.49-1.6q-3.03 0-4.54 1.6t-1.97 5.03-.46 8.91v2.97h-11.65v-2.46q0-5.48.68-10.19.69-4.72 2.63-8.2 1.94-3.49 5.69-5.46 3.74-1.97 9.85-1.97 5.83 0 9.4 1.86t5.48 5.46q1.92 3.59 2.6 8.88.69 5.28.69 12.2v58.32h-11.77v-7.42q-.52 1.71-2 3.63-1.49 1.91-3.89 3.22-2.4 1.32-5.77 1.32m3.32-9.49q3.08 0 5.31-1.97t2.97-3.91v-32.62q-4.4 1.94-7.23 3.51-2.82 1.57-4.39 3.29-1.58 1.71-2.2 4.11-.63 2.4-.63 6.06v7.94q0 7.25 1.25 10.42 1.26 3.17 4.92 3.17m58.45 9.26h-8.05q-5.49 0-8.29-1.32-2.8-1.31-3.77-4.22-.97-2.92-.97-7.72v-63.58h-7.83v-8.68h7.83v-15.54h11.71v15.54h9.26v8.68h-9.26v62.56q0 2.17.57 3.22.57 1.06 2.57 1.4 2 .35 6.23.35Z"/><rect width="502" height="44.07" x="97.135" y="434.043" fill="none" rx="0" ry="0" transform="translate(422.57 473.97)"/><path fill="#d6350e" d="M587.065 942.488h-2.69q-1.83 0-2.76-.44-.93-.43-1.26-1.4-.32-.98-.32-2.58v-21.19h-2.61v-2.89h2.61v-5.18h3.9v5.18h3.09v2.89h-3.09v20.85q0 .73.19 1.08t.86.46q.67.12 2.08.12Zm20.34.08q-2.59 0-3.73-2.01-1.15-2.01-1.16-5.57v-2.78q0-1.89.64-3.13.65-1.25 1.83-2.09t2.78-1.51q1.6-.68 3.51-1.44v-2.21q0-1.83-.12-2.96-.11-1.13-.58-1.67-.47-.53-1.49-.53-1.01 0-1.52.53-.5.54-.66 1.68-.15 1.14-.15 2.97v.99h-3.88v-.82q0-1.83.23-3.4.22-1.57.87-2.73t1.9-1.82q1.24-.66 3.28-.66 1.94 0 3.13.62t1.83 1.82.87 2.96.23 4.07v19.44h-3.93v-2.47q-.17.57-.66 1.21-.5.63-1.3 1.07t-1.92.44m1.1-3.16q1.03 0 1.78-.66.74-.66.99-1.3v-10.88q-1.47.65-2.41 1.17-.95.53-1.47 1.1t-.73 1.37-.21 2.02v2.65q0 2.41.42 3.47t1.63 1.06m28.14 2.91h-3.91v-33.88h3.91Zm22.02 0h-3.9v-33.88h3.9v18.89l5.62-13.57h3.94l-6.01 14.11 6.34 14.45h-4.02l-5.87-13.9Zm52.35 0h-3.44l-3.34-28.56h3.28l1.5 15.9.44 5.46h.17l.73-5.48 2.26-15.88h3.41l2.27 15.46.78 5.9h.15l.46-5.92 1.48-15.44h3.2l-3.44 28.56h-3.6l-2.88-22.35Zm33.54-.01h-3.92v-28.56h3.92Zm0-31.19h-3.92v-3.58h3.92Zm25.7 31.37h-2.69q-1.83 0-2.76-.44-.93-.43-1.26-1.4-.32-.98-.32-2.58v-21.19h-2.61v-2.89h2.61v-5.18h3.9v5.18h3.09v2.89h-3.09v20.85q0 .73.19 1.08.2.35.86.46.67.12 2.08.12Zm19.96-.17h-3.9v-33.88h3.9v8.34q.38-1.33 1.61-2.36 1.23-1.02 2.94-1.02 2.15 0 3.37 1.52t1.22 4.63v22.77h-3.9v-22.45q0-1.75-.64-2.43-.64-.67-1.71-.67-.78 0-1.44.37-.67.37-1.06 1.16t-.39 2.05Zm53.82 0h-3.44l-3.33-28.56h3.27l1.51 15.9.43 5.46h.17l.73-5.48 2.26-15.88h3.41l2.27 15.46.78 5.9h.15l.46-5.92 1.48-15.44h3.2l-3.44 28.56h-3.6l-2.88-22.35Zm35.53.34q-2.02 0-3.28-.69-1.26-.7-1.93-1.98-.68-1.29-.93-3.09-.24-1.8-.24-4.02v-10.12q0-2.68.51-4.79.51-2.12 1.89-3.34 1.39-1.22 3.98-1.22 1.94 0 3.18.7 1.23.69 1.92 1.96.68 1.27.94 2.97.26 1.71.26 3.72v10.12q0 2.19-.23 3.98t-.89 3.09q-.65 1.31-1.9 2.01t-3.28.7m0-3.25q1.02 0 1.53-.69.5-.68.67-1.91.18-1.23.18-2.85v-11.98q0-1.6-.18-2.79-.17-1.19-.68-1.85-.52-.67-1.52-.67-1.07 0-1.6.67-.54.66-.7 1.85t-.16 2.79v11.98q0 1.62.16 2.85t.7 1.91q.53.69 1.6.69m27.78 2.91h-3.92v-28.56h3.92v3.18q.5-1.66 1.73-2.59 1.23-.94 3.13-.94.04 0 .05.51.01.5.01 1.15v1.66q-.92 0-1.83.22-.92.22-1.72.74-.79.52-1.37 1.42Zm24.61 0h-3.9v-33.88h3.9Zm22.5.24q-2.12 0-3.15-1.24-1.04-1.24-1.38-3.36-.33-2.12-.33-4.79v-10.8q0-2.55.47-4.58.46-2.02 1.65-3.21 1.19-1.18 3.33-1.18 1.12 0 2.01.65.88.65 1.34 1.6v-7.22h3.92v33.88h-3.92v-2.4q-.57 1.41-1.62 2.03t-2.32.62m1.35-3.18q.89 0 1.47-.45.59-.45.86-1.66.28-1.22.28-3.49v-11.46q0-2.78-.47-4.21t-2.05-1.43q-1.42.02-1.9 1.4t-.48 4.33v11.54q0 1.66.17 2.88.16 1.22.65 1.88.5.67 1.47.67M737.947 701.611c-.11 4.524-6.77 8.143-14.992 8.143s-14.898-3.634-14.99-8.143c-12.72 1.17-22.448 11.845-22.434 24.617 0 13.634 11.06 13.603 24.695 13.603h25.443c13.65 0 24.695.047 24.695-13.603 0-12.87-9.828-23.447-22.417-24.6"/><path fill="#d6350e" d="M703.565 679.288q0 .28.046.53c1.186 13.494 9.08 23.915 18.642 23.915 9.672 0 17.644-10.702 18.69-24.43a21.8 21.8 0 0 0 0-6.053c-1.405-9.562-9.236-16.879-18.69-16.879s-17.316 7.332-18.689 16.88a21.8 21.8 0 0 0 0 6.037m7.02-10.718s13.073 6.35 21.84 0c0 0 5.226 8.237 3.76 11.482l2.652-3.042q0 1.217-.187 2.387c-.905 12.043-7.894 21.45-16.396 21.45-8.362 0-15.288-9.095-16.364-20.873a7.8 7.8 0 0 1 2.62 1.232s-1.872-11.076 2.075-12.636m113.662 36.286c4.243.484 7.956 1.217 7.956 1.217-8.47-4.649-8.237-21.34-8.237-21.34 1.482-32.309-19.859-30.624-19.859-30.624v.047l-.03-.047s-21.326-1.685-19.844 30.623c0 0 .218 16.692-8.237 21.34 0 0 2.262-.155 5.304-.202a24.65 24.65 0 0 0-14.633 22.558c0 13.634 11.076 11.232 24.71 11.232h25.43c13.65 0 24.71 2.402 24.71-11.232 0-11.06-7.27-20.405-17.27-23.556m-25.959-25.32s7.145-2.386 15.866-8.673l.124-.093.375.624c.764 1.28 2.387 5.148-.687 6.926l5.585.702h.125l1.03.187q-.032 1.217-.188 2.387c-.312 4.274-1.404 8.221-3.057 11.544-3.01 6.006-7.863 9.906-13.354 9.906-8.36 0-15.272-9.08-16.349-20.857 0 0 6.6-1.092 10.546-2.652m11.513 31.808-5.71 9.282-5.71-9.282c-4.149-.936-7.363-2.886-8.657-5.273 3.354.297 6.193.905 6.926 2.122l-3.15-7.02c3.025 3.01 6.66 4.774 10.607 4.774a14.98 14.98 0 0 0 10.374-4.57l-2.184 4.57c.717-1.217 3.48-1.545 6.723-1.467-.514 3.12-4.165 5.725-9.204 6.864"/><path fill="#d6350e" d="M799.785 595.344h-58.094a3.276 3.276 0 0 0-3.276 3.26v1.014h-10.608a3.84 3.84 0 0 0-3.822 3.822v44.148a3.83 3.83 0 0 0 3.837 3.822h40.53l12.838 9.516-1.716-9.516h16.692a3.83 3.83 0 0 0 3.837-3.822v-8.22a3.276 3.276 0 0 0 3.042-3.246v-37.518a3.276 3.276 0 0 0-3.26-3.26m2.31 40.342a3.167 3.167 0 0 1-3.168 3.166h-33.43l-10.609 7.832 1.435-7.832h-13.79a3.12 3.12 0 0 1-3.15-3.166v-36.41a3.156 3.156 0 0 1 3.15-3.168h56.394a3.16 3.16 0 0 1 3.167 3.167Z"/></g><path fill="transparent" stroke="transparent" stroke-width="1.992" d="M250 394.422h1000v711.156H250z"/></g></svg>